HIERARCHY
ROOT hip
{
	OFFSET 0.000000 0.000000 0.000000 
	CHANNELS 6 Xposition Yposition Zposition Xrotation Zrotation Yrotation
	JOINT abdomen
	{
		OFFSET 0.000000 3.402643 0.000000 
		CHANNELS 3 Xrotation Zrotation Yrotation
		JOINT chest
		{
			OFFSET 0.000000 8.438565 -0.680529 
			CHANNELS 3 Xrotation Zrotation Yrotation
			JOINT neck
			{
				OFFSET 0.000000 10.207942 -0.272212 
				CHANNELS 3 Xrotation Zrotation Yrotation
				JOINT head
				{
					OFFSET 0.000000 3.130431 0.000000 
					CHANNELS 3 Xrotation Zrotation Yrotation
					End Site
					{
						OFFSET 0.000000 3.130435 0.000000 
					}
				}
			}
			JOINT lCollar
			{
				OFFSET 3.470700 6.669187 -0.816635 
				CHANNELS 3 Yrotation Zrotation Xrotation
				JOINT lShldr
				{
					OFFSET 3.198488 0.000000 0.000000 
					CHANNELS 3 Zrotation Yrotation Xrotation
					JOINT lForeArm
					{
						OFFSET 10.139888 0.000000 0.000000 
						CHANNELS 3 Yrotation Zrotation Xrotation
						JOINT lHand
						{
							OFFSET 8.370511 0.000000 0.000000 
							CHANNELS 3 Zrotation Yrotation Xrotation
							End Site
							{
								OFFSET 4.083176 0.000000 0.000000 
							}
						}
					}
				}
			}
			JOINT rCollar
			{
				OFFSET -3.470700 6.669187 -0.816635 
				CHANNELS 3 Yrotation Zrotation Xrotation
				JOINT rShldr
				{
					OFFSET -3.198488 0.000000 0.000000 
					CHANNELS 3 Zrotation Yrotation Xrotation
					JOINT rForeArm
					{
						OFFSET -10.139888 0.000000 0.000000 
						CHANNELS 3 Yrotation Zrotation Xrotation
						JOINT rHand
						{
							OFFSET -8.370511 0.000000 0.000000 
							CHANNELS 3 Zrotation Yrotation Xrotation
							End Site
							{
								OFFSET -4.083176 0.000000 0.000000 
							}
						}
					}
				}
			}
		}
	}
	JOINT lThigh
	{
		OFFSET 5.308129 -1.633274 1.361059 
		CHANNELS 3 Xrotation Zrotation Yrotation
		JOINT lShin
		{
			OFFSET -2.041588 -20.007561 0.000000 
			CHANNELS 3 Xrotation Zrotation Yrotation
			JOINT lFoot
			{
				OFFSET 0.000000 -19.190928 -1.224953 
				CHANNELS 3 Xrotation Yrotation Zrotation
				End Site
				{
					OFFSET 0.000000 -2.449906 4.627600 
				}
			}
		}
	}
	JOINT rThigh
	{
		OFFSET -5.308129 -1.633274 1.361059 
		CHANNELS 3 Xrotation Zrotation Yrotation
		JOINT rShin
		{
			OFFSET 2.041588 -20.007561 0.000000 
			CHANNELS 3 Xrotation Zrotation Yrotation
			JOINT rFoot
			{
				OFFSET 0.000000 -19.190928 -1.224953 
				CHANNELS 3 Xrotation Yrotation Zrotation
				End Site
				{
					OFFSET 0.000000 -2.449906 4.627600 
				}
			}
		}
	}
}
MOTION
Frames: 8
Frame Time: 0.033333
2.112295 51.127781 1.416948 7.041016 -4.208984 51.825451 22.346691 -12.879873 -3.521690 -22.890627 11.171875 7.167969 51.063168 8.107644 2.471410 -57.207031 -10.195312 -3.125000 2.000000 -2.000000 0.000000 -87.197266 24.462891 2.783203 -50.928757 -1.835959 -2.011643 5.327859 56.023895 8.428866 -2.000000 2.000000 0.000000 83.574219 -16.572266 13.623046 53.186298 1.634072 -2.072591 -48.476391 -66.314941 42.058731 -23.573107 -1.699046 11.000704 22.157152 -5.442945 -2.046013 -0.930820 10.984434 3.442220 1.131622 -10.670439 -13.179462 43.281303 3.619517 3.502785 26.918919 -24.270720 2.066653 
4.383909 51.781654 2.818299 5.986328 -4.550781 53.270706 22.605478 -11.708403 -4.186613 -22.880861 11.347656 6.835938 51.063168 8.107644 2.471410 -56.591797 -11.132813 -0.517578 2.000000 -2.000000 0.000000 -86.230469 21.943359 3.828125 -50.752972 -1.835959 -2.011643 5.485064 55.096920 7.701190 -2.000000 2.000000 0.000000 83.320313 -17.646484 15.019533 53.186298 1.634072 -2.072591 -49.093861 -66.620224 42.811867 -18.901049 -1.524218 11.181788 19.485832 -5.107045 -2.072129 -1.471808 9.130015 3.330603 -5.603619 -10.609066 -9.678021 46.236073 3.427380 3.535507 28.671061 -24.126507 4.871426 
6.740149 52.301609 4.173604 4.931641 -4.736328 54.569508 22.879030 -10.447895 -5.007895 -22.685549 11.689453 6.572266 51.063168 8.107644 2.471410 -55.937500 -11.728515 0.986328 2.000000 -2.000000 0.000000 -85.351563 19.726563 5.032594 -50.753788 -1.964972 -2.043234 6.085386 53.918507 7.373245 -2.000000 2.000000 0.000000 83.037109 -18.789063 16.051542 53.192829 1.813048 -1.954308 -49.420258 -67.315193 42.981686 -13.951653 -1.611442 10.162127 16.833633 -5.615622 -1.583585 -2.695846 7.931396 4.249324 -10.659462 -10.238451 -7.562173 48.342934 3.271161 3.801327 27.521429 -24.001251 6.164193 
9.115318 52.703392 5.480102 3.867188 -4.912109 56.053852 23.152472 -9.279602 -5.669538 -22.685549 12.041016 6.259767 51.063168 8.107644 2.471410 -54.863281 -11.845702 0.761718 2.000000 -2.000000 0.000000 -84.335938 16.992188 6.542968 -50.753788 -1.964972 -2.043234 6.046778 52.980740 6.590047 -2.000000 2.000000 0.000000 82.734375 -20.097656 15.963443 53.368858 1.823366 -1.963485 -49.269447 -67.445641 43.073406 -8.906181 -1.514416 9.132663 13.318493 -5.685099 -1.290603 -3.225427 6.886985 4.104823 -13.514194 -11.033643 -8.142747 45.709412 3.476369 3.649070 21.760300 -22.751238 4.683652 
11.090107 52.876709 6.458495 2.998047 -5.097656 57.539063 23.399212 -8.103224 -6.300265 -22.666018 12.392580 5.947266 51.063168 8.107644 2.471410 -53.740234 -11.416014 -0.371095 2.000000 -2.000000 0.000000 -83.046875 13.701173 8.769532 -51.104797 -1.836528 -2.021389 5.082705 51.745232 4.643605 -2.000000 2.000000 0.000000 82.958984 -21.474607 14.722990 53.538391 1.635209 -2.092083 -49.034252 -67.316032 43.150368 -5.807302 -1.044916 7.956147 12.770826 -5.694561 -1.233457 -3.150931 6.772309 4.009421 -15.453742 -11.937677 -10.201236 40.430614 3.807758 3.179237 14.228412 -20.455980 2.879632 
13.093083 52.845200 7.408882 2.275391 -5.292969 58.807690 23.469526 -7.182302 -6.862953 -22.470703 12.548829 5.490404 51.063168 8.107644 2.471410 -52.626953 -10.966796 -1.837795 2.000000 -2.000000 0.000000 -81.621094 10.068358 11.328125 -51.633751 -1.967246 -2.082215 4.593080 50.248924 3.136351 -2.000000 2.000000 0.000000 83.828125 -22.871094 12.349721 53.702812 1.465495 -2.033503 -48.967300 -67.135605 43.391060 -2.714646 -0.577319 6.996482 12.600979 -5.321457 -1.496133 -4.488275 6.686748 2.990920 -16.922647 -13.035766 -12.418241 33.932682 4.189086 2.749495 6.783721 -17.272499 2.143887 
15.301668 52.593102 8.565706 1.572266 -5.273437 60.106525 23.737165 -6.176251 -7.571140 -22.275391 12.890625 5.400390 51.063168 8.107644 2.471410 -51.708984 -10.693358 -3.066406 2.000000 -2.000000 0.000000 -80.351563 6.259766 13.526456 -52.161930 -1.949453 -2.112589 3.808516 48.615192 1.569701 -2.000000 2.000000 0.000000 84.843750 -24.160156 9.531250 54.070824 1.576226 -1.919229 -48.748516 -66.426414 43.553013 0.226149 -0.245425 5.029619 12.610451 -5.691212 -1.258330 -7.227885 7.254871 3.452571 -18.512764 -13.072985 -13.610265 27.418625 4.628411 1.806561 1.757789 -13.901639 2.545173 
17.599934 52.144047 9.915889 1.572266 -5.273437 61.336998 23.785685 -5.502997 -8.033157 -22.089844 13.066405 5.107422 51.063168 8.107644 2.471410 -51.201172 -11.269531 -4.406349 2.000000 -2.000000 0.000000 -79.414063 2.812500 14.628906 -52.514019 -1.950589 -2.132079 3.570123 47.520706 1.015601 -2.000000 2.000000 0.000000 85.449219 -25.019531 7.812500 54.230976 1.447703 -2.063874 -47.666328 -66.472878 42.810505 2.925326 -0.155613 3.342213 13.008381 -5.740371 -1.230272 -9.581695 7.204739 2.824244 -20.550165 -11.546450 -15.229126 19.663500 4.842659 1.666857 -1.395131 -12.685952 2.155813 
